<svg width="59" height="29" viewBox="0 0 59 29" fill="none" xmlns="http://www.w3.org/2000/svg">
<path fill-rule="evenodd" clip-rule="evenodd" d="M29.5384 9.84614L32.2699 5.14541L41.4173 4.57369L41.7349 4.00198L33.2228 3.43027L35.192 0H50.9458C55.7736 0 59.3945 1.71514 57.997 6.79702C57.5523 8.32158 55.5831 12.1965 49.8659 13.8481C51.0729 13.9752 54.122 15.3727 53.6138 18.8665C52.661 25.0918 44.657 28.0139 40.1469 28.0139H21.5345L20.6451 24.393L30.3642 23.7578L30.6818 23.1861L20.1369 22.5508L18.9935 18.2948L34.0486 17.4054L34.3662 16.8337L7.36873 15.1186L8.6392 12.8953L37.6694 10.9896L37.987 10.4179L29.5384 9.84614ZM41.6714 10.799H44.3394C46.1181 10.799 47.9602 9.97319 48.659 8.32158C49.2942 6.79701 48.4684 5.46302 47.325 5.46302H44.7205L41.6714 10.799ZM38.6223 16.1985L35.3826 21.7886H38.4317C39.8292 21.7886 42.4337 21.0898 43.196 19.0571C43.8947 17.1513 42.5607 16.1985 41.6714 16.1985H38.6223ZM15.1821 24.8377L13.3399 28.0139H0L1.27047 25.7905L15.1821 24.8377ZM16.0714 0H26.8069L27.6327 3.04913L14.801 2.22332L16.0714 0ZM28.268 5.3995L29.4114 9.84614L11.0531 8.6392L12.3236 6.41588L28.268 5.3995ZM18.93 18.2948L16.5796 22.2967L3.68436 21.598L4.95483 19.3747L18.93 18.2948Z" fill="#E31937"/>
</svg>
